<svg width="800" height="500" xmlns="http://www.w3.org/2000/svg" style="background-color: #1e1e1e; font-family: -apple-system, BlinkMacSystemFont, 'Segoe UI', Roboto, Helvetica, Arial, sans-serif;">
  <defs>
    <filter id="shadow" x="-5%" y="-5%" width="110%" height="110%">
      <feGaussianBlur in="SourceAlpha" stdDeviation="2"/>
      <feOffset dx="0" dy="1" result="offsetblur"/>
      <feComponentTransfer>
        <feFuncA type="linear" slope="0.3"/>
      </feComponentTransfer>
      <feMerge> 
        <feMergeNode/>
        <feMergeNode in="SourceGraphic"/> 
      </feMerge>
    </filter>
  </defs>

  <!-- Main Window Background -->
  <rect x="0" y="0" width="800" height="500" rx="6" fill="#1e1e1e" />
  
  <!-- Title Bar -->
  <rect x="0" y="0" width="800" height="30" rx="6" fill="#323233" />
  <rect x="0" y="25" width="800" height="5" fill="#323233" /> <!-- Square off bottom corners -->
  
  <!-- Window Controls -->
  <circle cx="20" cy="15" r="5.5" fill="#ff5f56" />
  <circle cx="40" cy="15" r="5.5" fill="#ffbd2e" />
  <circle cx="60" cy="15" r="5.5" fill="#27c93f" />
  
  <text x="400" y="20" font-size="12" fill="#9da5b4" text-anchor="middle">Zyntax Studio - main.znx</text>

  <!-- Activity Bar -->
  <rect x="0" y="30" width="48" height="470" fill="#333333" />
  <!-- Icons (Simplified geometry) -->
  <!-- Explorer -->
  <rect x="0" y="30" width="2" height="48" fill="#ffffff" /> <!-- Active Indicator -->
  <g transform="translate(14, 42)" opacity="1">
    <path d="M2.5 4L5 4L6 6L16 6L16 16L2.5 16L2.5 4Z" fill="none" stroke="#ffffff" stroke-width="1.5"/>
  </g>
  <!-- Search -->
  <g transform="translate(14, 90)" opacity="0.6">
    <circle cx="8" cy="8" r="5" stroke="#ffffff" stroke-width="1.5" fill="none"/>
    <line x1="12" y1="12" x2="16" y2="16" stroke="#ffffff" stroke-width="1.5"/>
  </g>
  <!-- Git -->
  <g transform="translate(14, 138)" opacity="0.6">
     <circle cx="5" cy="5" r="2" fill="#ffffff"/>
     <circle cx="12" cy="12" r="2" fill="#ffffff"/>
     <circle cx="5" cy="15" r="2" fill="#ffffff"/>
     <path d="M5 5 L5 15 M5 10 L12 12" stroke="#ffffff" stroke-width="1.5" fill="none"/>
  </g>
  <!-- Extensions -->
  <g transform="translate(14, 186)" opacity="0.6">
    <rect x="3" y="3" width="6" height="6" stroke="#ffffff" stroke-width="1.5" fill="none"/>
    <rect x="10" y="3" width="6" height="6" stroke="#ffffff" stroke-width="1.5" fill="none"/>
    <rect x="3" y="10" width="6" height="6" stroke="#ffffff" stroke-width="1.5" fill="none"/>
    <rect x="11" y="11" width="4" height="4" fill="#ffffff"/> <!-- Missing piece filled -->
  </g>
  
  <!-- Sidebar -->
  <rect x="48" y="30" width="200" height="470" fill="#252526" />
  <text x="65" y="55" font-size="11" fill="#bbbbbb" font-weight="600" letter-spacing="0.5">EXPLORER</text>
  
  <!-- Sidebar Item: Open Editors -->
  <path d="M55 75 L60 80 L55 85" fill="none" stroke="#666" stroke-width="1"/>
  <text x="65" y="82" font-size="11" fill="#bbbbbb" font-weight="bold">OPEN EDITORS</text>
  <rect x="48" y="90" width="200" height="24" fill="#37373d" />
  <text x="80" y="106" font-size="12" fill="#ffffff">main.znx</text>
  <circle cx="230" cy="102" r="3" fill="#ffffff" opacity="0.5"/> <!-- Close dot -->
  
  <!-- Sidebar Item: Project -->
  <path d="M55 125 L60 130 L55 135" fill="none" stroke="#666" stroke-width="1"/>
  <text x="65" y="132" font-size="11" fill="#bbbbbb" font-weight="bold">ZYNTAX-PROJECT</text>
  
  <rect x="48" y="140" width="200" height="22" fill="none" />
  <text x="80" y="155" font-size="13" fill="#4ec9b0"># main.znx</text>
  
  <text x="80" y="177" font-size="13" fill="#cccccc"># utils.znx</text>
  <text x="80" y="199" font-size="13" fill="#d4d4d4">{} package.json</text>
  <text x="80" y="221" font-family="monospace" font-size="13" fill="#d4d4d4">.gitignore</text>

  <!-- Editor Area -->
  <rect x="248" y="30" width="552" height="470" fill="#1e1e1e" />
  
  <!-- Tabs -->
  <rect x="248" y="30" width="552" height="35" fill="#252526" />
  <rect x="248" y="30" width="120" height="35" fill="#1e1e1e" /> <!-- Active Tab BG -->
  <line x1="248" y1="30" x2="368" y2="30" stroke="#007acc" stroke-width="2"/> <!-- Active Top Border -->
  <text x="270" y="52" font-size="13" fill="#ffffff">main.znx</text>
  <text x="345" y="52" font-size="14" fill="#666666">×</text>
  
  <text x="385" y="52" font-size="13" fill="#969696" font-style="italic">utils.znx</text>
  
  <!-- Breadcrumbs -->
  <rect x="248" y="65" width="552" height="22" fill="#1e1e1e" />
  <text x="260" y="80" font-size="12" fill="#888888">src > main.znx > calculate_stat</text>

  <!-- Line Numbers -->
  <rect x="248" y="87" width="40" height="383" fill="#1e1e1e" />
  <text x="275" y="105" font-family="Consolas, monospace" font-size="13" fill="#6e7681" text-anchor="end">1</text>
  <text x="275" y="125" font-family="Consolas, monospace" font-size="13" fill="#6e7681" text-anchor="end">2</text>
  <text x="275" y="145" font-family="Consolas, monospace" font-size="13" fill="#6e7681" text-anchor="end">3</text>
  <text x="275" y="165" font-family="Consolas, monospace" font-size="13" fill="#6e7681" text-anchor="end">4</text>
  <text x="275" y="185" font-family="Consolas, monospace" font-size="13" fill="#6e7681" text-anchor="end">5</text>
  
  <!-- Code Content -->
  <g transform="translate(300, 105)" font-family="Consolas, monospace" font-size="14">
    <text x="0" y="0" fill="#569cd6">function</text>
    <text x="72" y="0" fill="#dcdcaa">calculate_stat</text>
    <text x="184" y="0" fill="#ffd700">(</text>
    <text x="192" y="0" fill="#9cdcfe">data</text>
    <text x="224" y="0" fill="#ffd700">)</text>
    
    <text x="0" y="20" fill="#c586c0">if</text>
    <text x="24" y="20" fill="#9cdcfe">data</text>
    <text x="56" y="20" fill="#cccccc">.</text>
    <text x="64" y="20" fill="#dcdcaa">len</text>
    <text x="88" y="20" fill="#cccccc">()</text>
    <text x="112" y="20" fill="#d4d4d4">==</text>
    <text x="136" y="20" fill="#b5cea8">0</text>
    
    <text x="32" y="40" fill="#569cd6">return</text>
    <text x="88" y="40" fill="#b5cea8">0</text>
    
    <text x="0" y="60" fill="#c586c0">end</text>
    
    <text x="0" y="80" fill="#6a9955">// Calculate processing result</text>
    
    <text x="0" y="100" fill="#569cd6">say</text>
    <text x="32" y="100" fill="#ce9178">"Processing completed"</text>
  </g>

  <!-- Minimap -->
  <rect x="750" y="87" width="50" height="383" fill="#1e1e1e" opacity="0.5"/>
  <rect x="755" y="100" width="30" height="4" fill="#444"/>
  <rect x="755" y="108" width="40" height="4" fill="#444"/>
  <rect x="760" y="116" width="20" height="4" fill="#444"/>
  <rect x="750" y="87" width="50" height="150" fill="#ffffff" opacity="0.05"/> <!-- Minimap slider -->

  <!-- Status Bar -->
  <rect x="0" y="470" width="800" height="30" fill="#007acc" />
  <g transform="translate(10, 489)" font-size="12" fill="#ffffff">
    <path d="M0 -3 L6 3 L0 9" stroke="#ffffff" fill="none" stroke-width="1.5" transform="scale(0.7)"/>
    <text x="15" y="0">master*</text>
    
    <path d="M80 0 L90 0 M85 -5 L85 5" stroke="none" fill="#ffffff"/> <!-- fake sync icon -->
    
    <text x="650" y="0">Ln 12, Col 4</text>
    <text x="730" y="0">UTF-8</text>
    <text x="770" y="0">ZNX</text>
  </g>
</svg>
