<svg width="800" height="500" xmlns="http://www.w3.org/2000/svg" style="background-color: #1e1e1e; font-family: -apple-system, BlinkMacSystemFont, 'Segoe UI', Roboto, Helvetica, Arial, sans-serif;">
  <!-- Background -->
  <rect x="0" y="0" width="800" height="500" rx="6" fill="#1e1e1e" />
  
  <!-- Title Bar -->
  <rect x="0" y="0" width="800" height="30" rx="6" fill="#323233" />
  <rect x="0" y="25" width="800" height="5" fill="#323233" />
  <circle cx="20" cy="15" r="5.5" fill="#ff5f56" />
  <circle cx="40" cy="15" r="5.5" fill="#ffbd2e" />
  <circle cx="60" cy="15" r="5.5" fill="#27c93f" />
  <text x="400" y="20" font-size="12" fill="#9da5b4" text-anchor="middle">Zyntax Studio - Extensions: Zyntax Core</text>

  <!-- Activity Bar -->
  <rect x="0" y="30" width="48" height="470" fill="#333333" />
  <!-- Extensions (Active) -->
  <rect x="0" y="174" width="2" height="48" fill="#ffffff" />
  <g transform="translate(14, 186)" opacity="1">
    <rect x="3" y="3" width="6" height="6" stroke="#ffffff" stroke-width="1.5" fill="none"/>
    <rect x="10" y="3" width="6" height="6" stroke="#ffffff" stroke-width="1.5" fill="none"/>
    <rect x="3" y="10" width="6" height="6" stroke="#ffffff" stroke-width="1.5" fill="none"/>
    <rect x="11" y="11" width="4" height="4" fill="#ffffff"/>
  </g>
  
  <!-- Sidebar: Extensions -->
  <rect x="48" y="30" width="250" height="470" fill="#252526" />
  <text x="68" y="55" font-size="11" fill="#bbbbbb" font-weight="600" letter-spacing="0.5">EXTENSIONS</text>
  
  <!-- Search -->
  <rect x="58" y="70" width="230" height="26" rx="2" fill="#3c3c3c" stroke="#3c3c3c" stroke-width="1"/>
  <text x="68" y="87" font-size="12" fill="#aaaaaa">Search Extensions...</text>
  
  <!-- Installed List -->
  <text x="68" y="120" font-size="11" fill="#bbbbbb" font-weight="bold">INSTALLED</text>
  
  <!-- Item 1 (Selected) -->
  <rect x="48" y="130" width="250" height="60" fill="#37373d" />
  <rect x="58" y="140" width="40" height="40" rx="3" fill="#333333"/>
  <text x="68" y="165" font-size="20" fill="#4ec9b0" font-weight="bold">Z</text> <!-- Logo placeholder -->
  
  <text x="110" y="150" font-size="13" fill="#ffffff" font-weight="bold">Zyntax Core</text>
  <text x="110" y="165" font-size="11" fill="#cccccc">Language Support</text>
  <text x="110" y="180" font-size="11" fill="#666666">zyntax-foundation</text>
  
  <!-- Item 2 -->
  <rect x="58" y="200" width="40" height="40" rx="3" fill="#333333"/>
  <text x="68" y="225" font-size="20" fill="#ce9178" font-weight="bold">Py</text>
  
  <text x="110" y="210" font-size="13" fill="#ffffff" font-weight="bold">Python</text>
  <text x="110" y="225" font-size="11" fill="#cccccc">IntelliSense & Linting</text>
  <text x="110" y="240" font-size="11" fill="#666666">microsoft</text>
  
  <!-- Recommended -->
  <text x="68" y="280" font-size="11" fill="#bbbbbb" font-weight="bold">RECOMMENDED</text>
  
  <!-- Item 3 -->
  <rect x="58" y="295" width="40" height="40" rx="3" fill="#333333"/>
  <text x="70" y="320" font-size="18" fill="#569cd6" font-weight="bold">{ }</text>
  
  <text x="110" y="305" font-size="13" fill="#ffffff" font-weight="bold">JSON Tools</text>
  <text x="110" y="320" font-size="11" fill="#cccccc">Format JSON</text>
  <rect x="230" y="305" width="50" height="20" rx="2" fill="#0e639c"/>
  <text x="240" y="318" font-size="10" fill="#ffffff">Install</text>

  <!-- Editor Area: Extension Details -->
  <rect x="298" y="30" width="502" height="470" fill="#1e1e1e" />
  
  <!-- Header -->
  <rect x="318" y="60" width="80" height="80" rx="4" fill="#252526" />
  <text x="338" y="110" font-size="40" fill="#4ec9b0" font-weight="bold">Z</text>
  
  <text x="420" y="80" font-size="24" fill="#ffffff" font-weight="bold">Zyntax Core Support</text>
  <text x="420" y="105" font-size="13" fill="#cccccc">zyntax-foundation <tspan fill="#666">| 1.5M downloads | v1.1.0</tspan></text>
  
  <text x="420" y="130" font-size="13" fill="#cccccc">Official Zyntax language support for Zyntax Studio. Includes IntelliSense, debugging, and code navigation.</text>
  
  <!-- Buttons -->
  <rect x="420" y="150" width="80" height="24" rx="2" fill="#3c3c3c" stroke="#3c3c3c"/>
  <text x="435" y="166" font-size="12" fill="#f44336">Uninstall</text>
  
  <rect x="510" y="150" width="80" height="24" rx="2" fill="#3c3c3c" stroke="#3c3c3c"/>
  <text x="530" y="166" font-size="12" fill="#cccccc">Disable</text>
  
  <!-- Details Tabs -->
  <text x="320" y="210" font-size="13" fill="#ffffff" font-weight="bold">DETAILS</text>
  <rect x="320" y="220" width="60" height="2" fill="#ffffff"/>
  
  <text x="400" y="210" font-size="13" fill="#888888">CHANGELOG</text>
  <line x1="298" y1="222" x2="800" y2="222" stroke="#333333"/>
  
  <!-- Content -->
  <text x="320" y="250" font-size="18" fill="#ffffff" font-weight="bold">Features</text>
  <text x="320" y="280" font-size="14" fill="#cccccc">• Syntax Highlighting for .znx files</text>
  <text x="320" y="305" font-size="14" fill="#cccccc">• Code Snippets and Auto-completion</text>
  <text x="320" y="330" font-size="14" fill="#cccccc">• Integrated Debugger Support</text>
  
  <!-- Illustration in content -->
  <rect x="320" y="350" width="400" height="100" fill="#252526" rx="4"/>
  <text x="340" y="380" font-family="Consolas, monospace" font-size="13" fill="#c586c0">function</text>
  <text x="410" y="380" font-family="Consolas, monospace" font-size="13" fill="#dcdcaa">demo</text>
  <text x="445" y="380" font-family="Consolas, monospace" font-size="13" fill="#d4d4d4">()</text>
  <text x="340" y="405" font-family="Consolas, monospace" font-size="13" fill="#6a9955">// Supported!</text>

  <!-- Status Bar -->
  <rect x="0" y="470" width="800" height="30" fill="#007acc" />
</svg>
